<?xml version="1.0" encoding="UTF-8" standalone="no"?>
<!-- Created with Inkscape (http://www.inkscape.org/) -->

<svg
   width="100mm"
   height="100mm"
   viewBox="0 0 100 100"
   version="1.1"
   id="svg1"
   xml:space="preserve"
   sodipodi:docname="Logo.svg"
   inkscape:version="1.3.2 (091e20e, 2023-11-25, custom)"
   xmlns:inkscape="http://www.inkscape.org/namespaces/inkscape"
   xmlns:sodipodi="http://sodipodi.sourceforge.net/DTD/sodipodi-0.dtd"
   xmlns:xlink="http://www.w3.org/1999/xlink"
   xmlns="http://www.w3.org/2000/svg"
   xmlns:svg="http://www.w3.org/2000/svg"
   xmlns:rdf="http://www.w3.org/1999/02/22-rdf-syntax-ns#"
   xmlns:cc="http://creativecommons.org/ns#"
   xmlns:dc="http://purl.org/dc/elements/1.1/"><defs
     id="defs1"><linearGradient
       id="linearGradient22"><stop
         style="stop-color:#bee000;stop-opacity:1;"
         offset="0"
         id="stop20" /><stop
         style="stop-color:#00f169;stop-opacity:1;"
         offset="0.5"
         id="stop21" /><stop
         style="stop-color:#00e8f5;stop-opacity:1;"
         offset="1"
         id="stop22" /></linearGradient><linearGradient
       id="linearGradient11-1"><stop
         style="stop-color:#ff8100;stop-opacity:1;"
         offset="0"
         id="stop17" /><stop
         style="stop-color:#ffdb00;stop-opacity:1;"
         offset="0.5"
         id="stop18" /><stop
         style="stop-color:#5aff00;stop-opacity:1;"
         offset="1"
         id="stop19" /></linearGradient><linearGradient
       id="linearGradient11"><stop
         style="stop-color:#263486;stop-opacity:1;"
         offset="0"
         id="stop12" /><stop
         style="stop-color:#ff8e43;stop-opacity:1;"
         offset="1"
         id="stop15" /></linearGradient><linearGradient
       id="linearGradient11-2"><stop
         style="stop-color:#ff8100;stop-opacity:1;"
         offset="0"
         id="stop11" /><stop
         style="stop-color:#ffdb00;stop-opacity:1;"
         offset="0.5"
         id="stop16" /><stop
         style="stop-color:#5aff00;stop-opacity:1;"
         offset="1"
         id="stop10" /></linearGradient><rect
       x="383"
       y="105"
       width="620"
       height="227"
       id="rect7" /><rect
       x="332"
       y="99"
       width="574.40707"
       height="282.48528"
       id="rect6" /><linearGradient
       id="swatch26"
       inkscape:swatch="solid"><stop
         style="stop-color:#e6e6e6;stop-opacity:1;"
         offset="0"
         id="stop26" /></linearGradient><linearGradient
       inkscape:collect="always"
       xlink:href="#linearGradient22"
       id="linearGradient14"
       x1="22.964415"
       y1="84.717056"
       x2="84.990326"
       y2="25.620956"
       gradientUnits="userSpaceOnUse"
       gradientTransform="matrix(0.17029544,0,0,0.17029544,34.292419,22.224864)" /><linearGradient
       inkscape:collect="always"
       xlink:href="#linearGradient22"
       id="linearGradient10"
       x1="386.65625"
       y1="193.42851"
       x2="875.65625"
       y2="193.42851"
       gradientUnits="userSpaceOnUse" /></defs><sodipodi:namedview
     id="base"
     pagecolor="#000000"
     bordercolor="#000000"
     borderopacity="0.3"
     inkscape:pageopacity="0.0"
     inkscape:pageshadow="2"
     inkscape:zoom="16"
     inkscape:cx="173.78125"
     inkscape:cy="113.8125"
     inkscape:document-units="mm"
     inkscape:showpageshadow="0"
     inkscape:pagecheckerboard="1"
     inkscape:deskcolor="#505050"
     inkscape:window-width="1920"
     inkscape:window-height="1002"
     inkscape:window-x="-8"
     inkscape:window-y="-8"
     inkscape:window-maximized="1"
     inkscape:current-layer="svg1"
     showguides="true" /><metadata
     id="metadata1"><rdf:RDF><cc:Work
         rdf:about=""><dc:format>image/svg+xml</dc:format><dc:type
           rdf:resource="http://purl.org/dc/dcmitype/StillImage" /></cc:Work></rdf:RDF></metadata><g
     inkscape:groupmode="layer"
     id="layer1"
     inkscape:label="Layer 1"><rect
       style="fill:#2a2a2a;fill-opacity:1;stroke:none;stroke-width:17.2054;stroke-dasharray:none;stroke-opacity:1"
       id="rect4"
       width="338.64706"
       height="121.41999"
       x="-8.043828"
       y="5.3109827"
       ry="0" /></g><path
     d="m 38.5,26.786479 v 10 h 5.832725 c -0.89739,-0.349526 -1.892967,-0.95266 -2.702296,-2.008308 -0.991288,-1.292983 -1.239754,-2.636367 -1.019775,-3.65202 0.109991,-0.507826 0.336008,-0.940659 0.677181,-1.233972 0.255879,-0.219984 0.591887,-0.348087 0.937667,-0.340922 0.11526,0.0024 0.231702,0.01983 0.346555,0.05386 0.811349,0.2404 1.175099,0.856216 1.566534,1.276918 0.391436,0.420702 0.793645,0.751953 1.896192,0.781551 0.510797,0.01371 0.799028,-0.125538 0.980525,-0.310297 0.181497,-0.184758 0.272396,-0.446504 0.27008,-0.74635 -0.0046,-0.599692 -0.410403,-1.238404 -0.969173,-1.341776 -0.663752,-0.122794 -0.978101,0.08708 -1.265565,0.528896 -0.170979,0.262784 -0.298995,0.621957 -0.386684,1.017926 -0.07,-0.06615 -0.138542,-0.139261 -0.21367,-0.220006 -0.130285,-0.140026 -0.276991,-0.335629 -0.462454,-0.539632 0.09032,-0.256111 0.204238,-0.500159 0.349019,-0.722678 0.315432,-0.484797 0.826277,-0.848151 1.460843,-0.925611 0.105761,-0.0129 0.214967,-0.01783 0.327282,-0.01408 0.112314,0.0037 0.227672,0.01615 0.34585,0.03802 1.050415,0.194326 1.658627,1.209029 1.666065,2.172256 0.0037,0.481614 -0.150082,0.979123 -0.514199,1.349784 -0.364102,0.370646 -0.922707,0.583163 -1.610712,0.564713 h -8.8e-5 c -1.295139,-0.03477 -2.027067,-0.548108 -2.496546,-1.052688 -0.469478,-0.504579 -0.69304,-0.894562 -1.185131,-1.040366 -0.192311,-0.05698 -0.326578,-0.02207 -0.48727,0.116075 -0.160692,0.13815 -0.321059,0.403458 -0.400148,0.768615 -0.158178,0.730314 0.0042,1.832748 0.863482,2.953543 1.294256,1.688161 3.133634,2.053167 3.961173,2.130719 C 45.632176,35.958736 45.129024,35.447111 44.747305,34.910533 44.086399,33.981508 43.77153,33 43.699898,32.195477 c 0.262608,0.194781 0.577315,0.372989 0.9543,0.506367 0.131733,0.534303 0.380873,1.14431 0.786919,1.715083 0.616598,0.866742 1.579116,1.663553 3.058883,2.070525 v -9.700967 z"
     style="display:inline;fill:url(#linearGradient14);stroke-width:0.21775"
     id="path4"
     inkscape:export-filename="LogoSquare.png"
     inkscape:export-xdpi="1066.8"
     inkscape:export-ydpi="1066.8" /><rect
     style="fill:#2a2a2a;fill-opacity:1;stroke:none;stroke-width:4.99999;stroke-dasharray:none;stroke-opacity:1"
     id="rect5"
     width="4.0348959"
     height="26.326042"
     x="37.835415"
     y="60.986458" /><text
     xml:space="preserve"
     transform="matrix(0.05733226,0,0,0.05733226,27.832123,20.696306)"
     id="text7"
     style="font-style:normal;font-variant:normal;font-weight:normal;font-stretch:normal;font-size:96px;line-height:1;font-family:'LEMON MILK';-inkscape-font-specification:'LEMON MILK';text-align:start;writing-mode:lr-tb;white-space:pre;shape-inside:url(#rect7);display:inline;fill:url(#linearGradient10);stroke:none;stroke-width:18.8976;stroke-dasharray:none;stroke-opacity:1"
     x="0"
     y="0"><tspan
       x="383"
       y="183.32695"
       id="tspan1">COASTER
</tspan><tspan
       x="383"
       y="279.32695"
       id="tspan2">DESIGNER</tspan></text><rect
     style="fill:#2a2a2a;fill-opacity:1;stroke:none;stroke-width:4.99999;stroke-dasharray:none;stroke-opacity:1"
     id="rect22"
     width="0.74414062"
     height="3.7703125"
     x="40.894661"
     y="33.354034" /></svg>
